<?xml version="1.0" standalone="no"?>
<!DOCTYPE svg PUBLIC "-//W3C//DTD SVG 20010904//EN"
 "http://www.w3.org/TR/2001/REC-SVG-20010904/DTD/svg10.dtd">
<svg version="1.0" xmlns="http://www.w3.org/2000/svg"
 width="800.000000pt" height="800.000000pt" viewBox="0 0 800.000000 800.000000"
 preserveAspectRatio="xMidYMid meet">
<metadata>
Created by potrace 1.11, written by Peter Selinger 2001-2013
</metadata>
<g transform="translate(0.000000,800.000000) scale(0.100000,-0.100000)"
fill="#000000" stroke="none">
<path d="M1915 5486 c-40 -17 -84 -63 -101 -103 -12 -27 -14 -247 -14 -1258
l0 -1225 -260 0 c-292 0 -310 -4 -336 -65 -16 -39 -19 -132 -5 -168 13 -34 50
-67 76 -67 12 0 42 -22 70 -50 l49 -50 2605 0 2604 0 53 50 c29 27 60 50 69
50 27 0 63 30 74 62 16 45 13 144 -4 178 -29 56 -49 60 -329 60 l-256 0 -2
1228 -3 1229 -30 48 c-20 32 -45 56 -74 72 l-44 23 -2056 0 c-1682 -1 -2061
-3 -2086 -14z m3885 -1486 l0 -1100 -1800 0 -1800 0 0 1100 0 1100 1800 0
1800 0 0 -1100z"/>
<path d="M3789 4653 l-70 -67 123 -123 123 -123 67 67 c38 37 68 74 68 83 0
19 -210 230 -229 230 -7 0 -44 -30 -82 -67z"/>
<path d="M4949 4692 c-102 -34 -184 -104 -230 -198 -21 -42 -24 -64 -25 -157
l-1 -108 -361 -363 c-284 -284 -362 -368 -362 -387 0 -19 24 -49 89 -112 49
-48 97 -87 107 -87 11 0 167 149 384 366 l367 365 47 -12 c144 -36 336 53 401
185 24 49 46 166 31 166 -3 0 -71 -32 -150 -72 -80 -40 -147 -70 -149 -68 -14
17 -168 272 -165 275 2 1 69 38 150 81 82 44 148 82 148 85 0 4 -24 17 -52 29
-72 31 -158 35 -229 12z"/>
<path d="M3262 4127 l-382 -382 123 -123 122 -122 383 383 382 382 -123 123
-122 122 -383 -383z"/>
<path d="M2733 3478 c-38 -101 -67 -186 -64 -190 4 -4 91 25 194 65 l187 72
-117 117 c-65 65 -120 118 -123 118 -4 0 -38 -82 -77 -182z"/>
</g>
</svg>
